<svg width="99" height="125" viewBox="0 0 99 125" fill="none" xmlns="http://www.w3.org/2000/svg">
<path d="M48.3122 0.0551806C49.4335 -0.0343959 50.6852 -0.079183 51.7026 0.44656C53.8469 1.5544 56.2382 3.53739 58.1967 5.00858L68.6647 12.8541C70.2832 14.0644 72.2021 15.6044 73.837 16.7115C73.804 11.5084 72.7416 9.60175 79.3785 9.91482C81.1319 9.99743 86.5087 9.24923 86.6505 11.7728C86.9231 16.6228 86.5088 21.5995 86.7764 26.4497C90.1801 29.3178 95.2651 32.5308 98.3713 35.5782C99.4035 36.5908 98.9199 44.3706 98.6307 46.11C97.8116 51.0358 94.9035 53.3883 91.203 56.1563C92.0216 49.946 91.9169 45.9511 91.902 39.7035L49.5458 8.00999C40.2694 14.8013 31.0647 21.69 21.9331 28.6746L13.0185 35.4262C11.1001 36.8763 9.18135 38.2386 7.36091 39.8126C7.27815 44.6701 7.39071 49.6383 7.24686 54.452C16.9236 50.841 23.765 50.9069 33.7398 53.4465C36.3985 53.8758 40.429 55.3636 43.0936 56.3323C54.3261 60.4155 66.3052 65.9639 78.5499 65.1841C85.7322 64.7266 94.2719 61.4308 98.9901 55.7884C97.6443 67.8311 86.7998 73.2509 75.691 73.3163C50.5621 73.4646 24.1633 47.3179 0.683455 67.3863C0.189746 63.4119 -0.520195 38.3749 0.58646 36.0894C0.92074 35.399 1.85329 34.6852 2.45304 34.1909C4.69675 32.3414 7.1036 30.6521 9.41286 28.8825L22.8283 18.559C27.7436 14.7807 32.6861 11.0379 37.6555 7.3309C40.1226 5.48064 45.647 0.937301 48.3122 0.0551806Z" fill="#FEFEFE"/>
<path d="M18.2207 65.9434C27.4934 65.035 37.6696 68.834 45.9546 72.6056C46.9022 73.0369 55.306 76.4448 55.5381 76.6809C53.6841 77.6244 42.5932 74.9535 39.818 74.4325C32.5491 73.0681 25.1873 72.2888 17.8415 73.7861C14.9411 74.3774 12.4384 75.6111 9.87022 77.0457C10.2262 78.0912 10.6159 79.1251 11.0387 80.1456C16.6616 93.5416 25.5031 102.556 37.3838 110.65C41.1665 113.227 45.4855 115.909 49.7122 117.638C49.8381 117.606 49.963 117.57 50.0866 117.53C52.1739 116.861 55.6717 114.764 57.6066 113.619C69.2892 106.707 80.0261 97.2542 86.1237 84.944C86.9617 83.4924 87.8327 81.2914 88.3726 79.7127C88.8323 78.3677 89.2677 76.4799 89.9842 75.2918C93.7177 73.0257 94.3302 72.7039 97.6015 69.9456C97.2936 75.9559 94.1618 84.5666 91.0901 90.1461C82.5673 105.627 67.0878 117.561 51.1282 124.652C48.6932 125.735 44.2228 122.856 41.9997 121.609C22.7977 110.838 7.88174 96.1556 1.98749 74.4352C4.46879 68.846 12.6797 66.571 18.2207 65.9434Z" fill="#FEFEFE"/>
<path d="M65.1602 81.0138C65.4724 81.3799 65.579 82.1818 65.6465 82.6813C66.4247 88.443 64.9863 95.3025 61.5122 99.9912C59.1642 103.123 55.7738 105.313 51.953 106.164C50.2082 106.539 46.204 106.404 45.0155 107.946C44.1175 109.111 44.8498 110.74 45.0772 111.973L44.8707 112.059C43.4833 111.644 43.1056 108.529 43.3013 107.335C44.1629 102.081 47.2749 97.4955 51.4139 94.2321C52.5532 93.3881 53.8767 92.8224 54.9175 91.8802C48.5807 94.0565 43.5819 98.2733 42.2666 105.112C41.8647 104.503 41.4165 103.692 41.1205 103.017C39.8005 100.065 39.7434 96.7022 40.9624 93.7072C43.9652 86.1184 52.1633 84.5869 59.24 83.0765C61.2226 82.6534 63.3083 81.8237 65.1602 81.0138Z" fill="#97E157"/>
</svg>
